<svg width="41" height="47" viewBox="0 0 41 47" fill="none" xmlns="http://www.w3.org/2000/svg">
<path d="M38.8757 36.2521H38.8953V36.2422C40.1028 33.9352 39.769 30.9705 38.0019 29.1935C36.9318 28.1137 35.4691 27.505 33.9475 27.505H33.918C32.3964 27.505 30.9435 28.1038 29.8734 29.1837L19.3103 38.5984C17.661 40.2772 15.7663 41.1607 13.8422 41.1607C12.0064 41.1607 10.2295 40.3361 8.69805 38.785C7.4611 37.5284 6.56771 33.8961 6.3321 31.1473C11.6432 34.6814 18.7115 33.9844 23.2175 29.4685L32.3475 20.3386C34.2422 18.4439 34.2422 15.3712 32.3475 13.4666L32.2885 13.4077C33.231 12.0039 32.7991 10.0797 31.3167 9.2158C30.0503 8.47952 28.3911 8.80348 27.4978 9.97168C26.4572 11.3363 26.791 13.2702 28.1948 14.2127C28.6759 14.5366 29.2452 14.7133 29.8342 14.7133C30.1189 14.7133 30.4037 14.6643 30.6785 14.5759L30.9534 14.8508C32.0824 15.9798 32.0824 17.8156 30.9534 18.9446L21.8235 28.0745C20.243 29.6649 18.2304 30.7447 16.0412 31.1865C16.0117 31.0196 15.9332 30.8724 15.8252 30.7447L3.05316 17.0106C2.97465 16.9321 2.8863 16.8732 2.7881 16.8241C3.31822 14.9785 4.30972 13.2998 5.67432 11.9352L14.8042 2.80526C15.8939 1.71556 17.7984 1.71556 18.898 2.80526L19.1729 3.08017C18.7016 4.63124 19.5852 6.27076 21.1363 6.74198C22.1769 7.0561 23.2961 6.77143 24.0618 6.0057C25.2104 4.84725 25.2005 2.98206 24.0519 1.84321C23.0604 0.861474 21.5093 0.704461 20.3411 1.47995L20.2822 1.42105C18.3874 -0.473683 15.3147 -0.473683 13.4102 1.42105L4.28027 10.551C-0.932615 15.7638 -0.932615 24.2557 4.28027 29.4783L4.29011 29.4881C4.23121 32.1878 5.17365 38.0192 7.29415 40.1691C9.19863 42.1031 11.4664 43.1339 13.8422 43.1339C16.3062 43.1339 18.682 42.0442 20.665 40.0316L31.2381 30.617C31.9449 29.8906 32.9168 29.4783 33.928 29.4783C34.9293 29.4783 35.8914 29.8808 36.5982 30.5974C37.6977 31.7067 37.953 33.5426 37.305 35.0544C34.1341 33.3267 30.1385 34.5832 28.5481 37.8719C27.1246 40.8072 28.1849 44.3905 30.973 46.079C34.0948 47.9639 38.1297 46.8546 39.8574 43.6738C41.1729 41.2491 40.7803 38.245 38.8757 36.2521ZM30.5115 12.5046C30.1385 12.8875 29.52 12.8875 29.1273 12.5046C28.7445 12.1217 28.7445 11.5032 29.1273 11.1204C29.5102 10.7375 30.1287 10.7375 30.5115 11.1204C30.8944 11.5032 30.8944 12.1217 30.5115 12.5046ZM21.2835 3.26663C21.4602 3.08008 21.7154 2.98197 21.9707 2.98197C22.5107 2.98197 22.9525 3.42374 22.9525 3.96371C22.9525 4.21892 22.8445 4.47423 22.6678 4.65094C22.285 5.0338 21.6665 5.0338 21.2836 4.65094C20.9007 4.26798 20.9007 3.6495 21.2835 3.26663ZM2.34633 20.0539C2.34633 19.7594 2.36593 19.4648 2.38563 19.1802L13.7538 31.4319H13.744C7.45116 31.4319 2.35608 26.3369 2.34633 20.0539ZM37.4719 43.7916C37.4523 43.8112 37.4424 43.8211 37.4326 43.8309C35.7048 45.5587 32.9069 45.5587 31.1889 43.8309C29.4709 42.1031 29.4611 39.3053 31.1889 37.5872C32.9167 35.8595 35.7146 35.8595 37.4326 37.5872C39.1605 39.2954 39.1801 42.0737 37.4719 43.7916Z" fill="#296BD3"/>
</svg>
