<svg width="39" height="47" viewBox="0 0 39 47" fill="none" xmlns="http://www.w3.org/2000/svg">
<path d="M32.8711 35.6552C29.7432 35.6552 27.1987 38.2005 27.1987 41.3276C27.1987 44.4547 29.7432 47 32.8711 47C35.9991 47 38.5436 44.4547 38.5436 41.3276C38.5436 38.2005 35.9991 35.6552 32.8711 35.6552ZM32.8711 45.3793C30.637 45.3793 28.8194 43.5617 28.8194 41.3276C28.8194 39.0935 30.637 37.2759 32.8711 37.2759C35.1053 37.2759 36.9229 39.0935 36.9229 41.3276C36.9229 43.5617 35.1053 45.3793 32.8711 45.3793Z" fill="#296BD3"/>
<path d="M37.1605 24.5478L33.6817 28.0266V11.28C36.4263 10.8846 38.5438 8.52402 38.5438 5.67241C38.5438 2.54529 35.9993 0 32.8713 0C29.7434 0 27.1989 2.54529 27.1989 5.67241C27.1989 8.52402 29.3164 10.8846 32.061 11.28V28.0266L28.5822 24.5478C28.2653 24.2309 27.7532 24.2309 27.4364 24.5478C27.1195 24.8646 27.1195 25.3768 27.4364 25.6936L32.2984 30.5557C32.4565 30.7137 32.6639 30.7931 32.8713 30.7931C33.0788 30.7931 33.2862 30.7137 33.4443 30.5557L38.3063 25.6936C38.6232 25.3768 38.6232 24.8646 38.3063 24.5478C37.9895 24.2309 37.4773 24.2309 37.1605 24.5478ZM28.8196 5.67241C28.8196 3.43829 30.6372 1.62069 32.8713 1.62069C35.1055 1.62069 36.9231 3.43829 36.9231 5.67241C36.9231 7.90654 35.1055 9.72414 32.8713 9.72414C30.6372 9.72414 28.8196 7.90654 28.8196 5.67241Z" fill="#296BD3"/>
<path d="M23.0843 41.018C23.043 40.9184 22.9838 40.8292 22.9084 40.7539L18.0472 35.8926C17.7303 35.5758 17.2182 35.5758 16.9014 35.8926C16.5845 36.2094 16.5845 36.7216 16.9014 37.0384L20.3802 40.5172H14.0498C10.1293 40.5172 6.93979 37.3269 6.93979 33.4073V11.28C9.68443 10.8846 11.8019 8.52402 11.8019 5.67241C11.8019 2.54529 9.25738 0 6.12945 0C3.00151 0 0.457031 2.54529 0.457031 5.67241C0.457031 8.52402 2.57446 10.8846 5.3191 11.28V33.4065C5.3191 38.2215 9.2355 42.1379 14.0498 42.1379H20.3802L16.9014 45.6167C16.5845 45.9336 16.5845 46.4457 16.9014 46.7626C17.0594 46.9206 17.2668 47 17.4743 47C17.6817 47 17.8892 46.9206 18.0472 46.7626L22.9084 41.9013C22.9838 41.8268 23.043 41.7368 23.0843 41.6371C23.1661 41.4394 23.1661 41.2158 23.0843 41.018ZM2.07772 5.67241C2.07772 3.43829 3.89532 1.62069 6.12945 1.62069C8.36357 1.62069 10.1812 3.43829 10.1812 5.67241C10.1812 7.90653 8.36357 9.72414 6.12945 9.72414C3.89532 9.72414 2.07772 7.90653 2.07772 5.67241Z" fill="#296BD3"/>
</svg>
