<svg width="37" height="47" viewBox="0 0 37 47" fill="none" xmlns="http://www.w3.org/2000/svg">
<path d="M23.1437 7.67021C22.6205 7.56361 22.107 7.8932 21.9907 8.41669C21.8841 8.94018 22.2136 9.45398 22.7367 9.57027C24.9167 10.0453 26.8254 11.2473 28.2593 13.0699C28.4532 13.3122 28.7341 13.4382 29.0247 13.4382C29.2379 13.4382 29.4413 13.3704 29.6158 13.2152C30.0324 12.8857 30.1002 12.2749 29.7708 11.8581C28.0559 9.68665 25.7597 8.23247 23.1437 7.67021Z" fill="#296BD3"/>
<path d="M34.7315 28.0283C36.9406 24.2475 37.5315 19.856 36.398 15.6487C35.2644 11.451 32.5516 7.94174 28.7438 5.78952C23.599 2.87155 17.5144 2.99753 12.6409 5.58592L9.1723 0.428515C8.87198 -0.0174519 8.27126 -0.133739 7.82558 0.16677C7.3799 0.467279 7.26362 1.0683 7.56393 1.51427L8.78477 3.32711C4.68637 6.17725 1.79911 10.3555 0.61704 15.1735C-0.642463 20.3212 0.171364 25.6531 2.91326 30.19C5.61648 34.7366 9.96674 37.9939 15.16 39.3705C16.4486 39.7098 17.7469 39.923 19.0549 40.02V45.061H13.0478C12.5149 45.061 12.0789 45.4972 12.0789 46.0304C12.0789 46.5636 12.5149 46.9999 13.0478 46.9999H26.9997C27.5326 46.9999 27.9686 46.5636 27.9686 46.0304C27.9686 45.4972 27.5326 45.061 26.9997 45.061H20.9927V40.0684C24.0059 40.0006 26.9707 39.2638 29.703 37.8969L31.04 39.8454C31.2241 40.1169 31.5341 40.2623 31.8441 40.2623C32.0283 40.2623 32.222 40.2042 32.3867 40.0878C32.8324 39.7873 32.939 39.1863 32.6386 38.7403L29.1894 33.6993C31.4566 32.3131 33.3654 30.384 34.7315 28.0283ZM28.5984 36.2587C20.0238 40.3788 9.44354 37.3444 4.57977 29.1819C-0.400292 20.932 1.94438 10.4622 9.86994 4.92676L10.9939 6.59414C9.09487 7.91256 7.44774 9.64788 6.21721 11.7515C4.0275 15.4935 3.44615 19.8463 4.56039 24.0149C5.69401 28.2222 8.4359 31.7412 12.2727 33.9225C14.8306 35.3767 17.6597 36.1133 20.5277 36.1133C21.9422 36.1133 23.3568 35.9291 24.7521 35.5705C25.6919 35.3281 26.6026 34.9985 27.465 34.6107L28.5984 36.2587ZM20.5082 34.1647C18.0376 34.1647 15.5282 33.5443 13.2318 32.2453C9.85046 30.3258 7.42826 27.2237 6.43021 23.5204C5.44195 19.856 5.96516 16.0364 7.88353 12.7404C10.5771 8.13555 15.4796 5.55694 20.5275 5.55694C22.9981 5.55694 25.4979 6.17734 27.7942 7.47639C31.1465 9.37644 33.5397 12.4593 34.528 16.1528C35.5259 19.856 35.0027 23.724 33.0553 27.0492C30.4005 31.6151 25.527 34.1647 20.5082 34.1647Z" fill="#296BD3"/>
</svg>
