<svg width="47" height="40" viewBox="0 0 47 40" fill="none" xmlns="http://www.w3.org/2000/svg">
<path d="M47 10.5447C47 7.86701 45.9877 5.34954 44.1497 3.4561C40.3554 -0.45258 34.1818 -0.452485 30.3876 3.4561L27.7167 6.20751C27.2992 6.07304 26.8722 5.97895 26.4411 5.92496C24.181 4.57772 21.2995 4.35511 18.9264 5.31975L16.6127 2.93619C14.7746 1.04275 12.3308 0 9.73157 0C7.13234 0 4.68825 1.04284 2.85038 2.93619C1.01224 4.82963 0 7.347 0 10.0247C0 12.7023 1.01224 15.2197 2.8502 17.1131L9.11396 23.5657C8.96874 23.6728 8.82985 23.7928 8.6995 23.9271L7.79144 24.8625C7.16612 25.5067 6.82161 26.3632 6.82161 27.2742C6.82161 28.1853 7.16612 29.0418 7.79144 29.686C8.41676 30.3302 9.24826 30.685 10.1326 30.685C10.2469 30.685 10.3604 30.6788 10.4726 30.6671C10.3752 31.6526 10.6919 32.6738 11.4233 33.4273C12.0688 34.0923 12.9167 34.4247 13.7646 34.4247C14.0252 34.4247 14.2857 34.393 14.5403 34.3303C14.5505 35.226 14.8933 36.0665 15.5092 36.701C16.1345 37.3452 16.966 37.7 17.8504 37.7C18.2486 37.7 18.6359 37.6275 18.9986 37.4896L19.517 38.0237C20.1926 38.7197 21.0913 39.0755 21.9793 39.0755C22.7178 39.0755 23.4491 38.8293 24.0384 38.328C24.7478 37.7244 25.1843 36.8432 25.241 35.9038C26.3112 36.2728 27.518 36.0958 28.4038 35.3422C29.107 34.744 29.542 33.8731 29.6048 32.943C30.6847 33.33 31.91 33.1582 32.8067 32.3952C33.5108 31.7962 33.946 30.9237 34.008 29.9924C35.0865 30.3768 36.309 30.2041 37.2041 29.4424C37.9258 28.8283 38.365 27.927 38.4093 26.9695C38.452 26.046 38.1255 25.1415 37.5127 24.4703L44.1497 17.6333C45.9878 15.7398 47 13.2223 47 10.5447ZM10.1328 29.1544C9.64528 29.1544 9.18694 28.9588 8.84215 28.6037C8.13045 27.8706 8.13045 26.6777 8.84215 25.9446L9.75021 25.0092C10.1061 24.6425 10.5734 24.4594 11.0409 24.4594C11.5082 24.4594 11.9757 24.6426 12.3315 25.0092C13.0432 25.7423 13.0432 26.9351 12.3315 27.6683L11.4235 28.6036C11.0787 28.9589 10.6203 29.1544 10.1328 29.1544ZM15.0553 32.345C14.3436 33.0782 13.1857 33.0782 12.474 32.345C11.7623 31.6119 11.7623 30.419 12.474 29.6859C13.1857 28.9527 14.3436 28.9528 15.0553 29.6859C15.767 30.4191 15.767 31.6119 15.0553 32.345ZM19.1413 35.6187C18.7966 35.9739 18.3382 36.1694 17.8506 36.1694C17.3631 36.1694 16.9048 35.974 16.56 35.6187C16.2153 35.2636 16.0253 34.7914 16.0253 34.2891C16.0253 33.7869 16.2153 33.3147 16.56 32.9596C16.9047 32.6044 17.3631 32.4088 17.8506 32.4088C18.3382 32.4088 18.7965 32.6044 19.1413 32.9596C19.4861 33.3147 19.6759 33.7869 19.6759 34.2891C19.6758 34.7914 19.486 35.2635 19.1413 35.6187ZM36.2581 28.2621C35.5442 28.8694 34.4354 28.7787 33.7334 28.0557L33.0461 27.3477L32.1382 26.4123C31.848 26.1133 31.3776 26.1135 31.0877 26.4123C30.7976 26.7111 30.7976 27.1957 31.0877 27.4945L31.9957 28.4298C32.3586 28.8036 32.5526 29.321 32.5282 29.8495C32.5034 30.3851 32.2665 30.87 31.861 31.215C31.1471 31.8224 30.0382 31.7316 29.3364 31.0086L28.6433 30.2947L27.7352 29.3593C27.4452 29.0604 26.9747 29.0604 26.6847 29.3593C26.3946 29.6582 26.3946 30.1427 26.6847 30.4414L27.5928 31.3769C27.9556 31.7507 28.1497 32.268 28.1253 32.7965C28.1005 33.3321 27.8636 33.817 27.4581 34.162C26.7442 34.7693 25.6354 34.6786 24.9334 33.9556L24.2781 33.2804L23.37 32.345C23.0799 32.046 22.6095 32.0462 22.3195 32.345C22.0294 32.6439 22.0294 33.1285 22.3195 33.4272L23.227 34.3619C23.2272 34.3621 23.2273 34.3622 23.2275 34.3624C23.5903 34.7361 23.7844 35.2536 23.76 35.7822C23.7352 36.3177 23.4983 36.8025 23.0928 37.1477C22.3789 37.7552 21.2701 37.6643 20.5681 36.9413L20.2616 36.6257C20.8425 35.9907 21.1618 35.1654 21.1618 34.2891C21.1618 33.378 20.8174 32.5216 20.192 31.8774C19.5667 31.2331 18.7352 30.8783 17.8508 30.8783C17.5854 30.8783 17.325 30.9109 17.0735 30.973C17.0632 30.1137 16.7413 29.2578 16.1062 28.6037C15.5478 28.0285 14.838 27.7026 14.1076 27.625C14.5928 26.3925 14.3511 24.925 13.3822 23.9271C12.6309 23.1531 11.6055 22.8305 10.625 22.9574L3.90109 16.0308C2.34348 14.4265 1.48582 12.2935 1.48582 10.0248C1.48582 7.75599 2.34348 5.62283 3.90091 4.01856C5.45824 2.41411 7.5289 1.5307 9.73139 1.5307C11.9339 1.5307 14.0045 2.4142 15.5619 4.01856L18.2331 6.77045C18.4558 6.99986 18.7945 7.05953 19.0786 6.91986C20.292 6.3226 21.7065 6.13026 23.0765 6.32846C22.1374 6.68591 21.2564 7.25055 20.5032 8.02635L15.9633 12.7031C14.6724 14.0329 14.6724 16.1967 15.9633 17.5266C16.6088 18.1916 17.4565 18.5241 18.3045 18.5241C19.1522 18.5241 20.0003 18.1915 20.6458 17.5266L24.6603 13.3911L36.3927 25.4771C36.7556 25.8508 36.9496 26.3682 36.9252 26.8967C36.9005 27.4321 36.6636 27.9171 36.2581 28.2621ZM36.464 23.386L25.7109 12.3088L26.0936 11.9146C26.3837 11.6157 26.3837 11.1311 26.0936 10.8324C25.8035 10.5336 25.3331 10.5336 25.0431 10.8324L19.5952 16.4445C18.8835 17.1776 17.7255 17.1775 17.0139 16.4445C16.3022 15.7113 16.3022 14.5185 17.0139 13.7853L21.5538 9.10862C23.7675 6.82832 27.3692 6.82832 29.583 9.10862C29.8731 9.40744 30.3435 9.40744 30.6335 9.10862C30.9237 8.80971 30.9237 8.32516 30.6335 8.02644C30.1876 7.56705 29.6967 7.18189 29.1757 6.86917L31.4381 4.53857C34.653 1.22686 39.8842 1.22677 43.0992 4.53857C46.3141 7.85036 46.3141 13.2391 43.0992 16.551L36.464 23.386Z" fill="#296BD3"/>
</svg>
